<svg width="98" height="78" viewBox="0 0 98 78" fill="none" xmlns="http://www.w3.org/2000/svg">
<path d="M20.2903 14.867C24.2874 14.867 27.5302 11.6241 27.5302 7.6271C27.5302 3.63008 24.2874 0.387207 20.2903 0.387207C16.2933 0.387207 13.0504 3.63008 13.0504 7.6271C13.0504 11.6241 16.2933 14.867 20.2903 14.867ZM78.2095 14.867C82.2066 14.867 85.4494 11.6241 85.4494 7.6271C85.4494 3.63008 82.2066 0.387207 78.2095 0.387207C74.2125 0.387207 70.9696 3.63008 70.9696 7.6271C70.9696 11.6241 74.2125 14.867 78.2095 14.867ZM97.169 70.9913L90.5324 54.3999L84.3333 61.3984L84.0316 64.1436L88.2096 74.5811C88.9638 76.4665 90.7738 77.6128 92.6893 77.6128C93.2927 77.6128 93.896 77.5072 94.4842 77.2659C96.9579 76.2704 98.1645 73.4649 97.169 70.9913ZM92.0106 39.3469L89.2202 27.2502C88.5264 24.2336 86.4147 21.6997 83.564 20.4779C80.7737 19.2713 77.6816 19.4674 75.1024 20.9757C71.6785 22.9968 69.1144 26.1793 67.8474 29.935L66.143 35.0482L63.7297 36.5867V22.1069C63.7297 20.7796 62.6438 19.6936 61.3164 19.6936H37.1834C35.8561 19.6936 34.7701 20.7796 34.7701 22.1069V36.5867L32.3418 35.0482L30.6374 29.935C29.3855 26.1643 26.8063 22.9968 23.3824 20.9757C20.7881 19.4674 17.7111 19.2713 14.9208 20.4779C12.07 21.6997 9.95841 24.2336 9.26458 27.2502L6.48929 39.3469C5.79546 42.3635 6.59487 45.5612 8.66126 47.899L18.7971 59.3471L20.3205 73.3141C20.592 75.7726 22.6735 77.6128 25.1169 77.6128C25.2979 77.6128 25.4639 77.5977 25.6449 77.5826C28.2995 77.296 30.2 74.9129 29.9134 72.2583L28.39 58.2611C28.1637 56.3003 27.3492 54.4753 26.037 52.9821L19.506 45.5913L22.1607 34.9879L23.1863 38.0648C23.8047 39.9502 24.9812 41.5943 26.8817 42.9819L34.5891 47.884C35.283 48.3214 36.4142 48.5778 37.1834 48.6381H61.3164C62.0857 48.5778 63.2169 48.3214 63.9107 47.884L71.6182 42.9819C73.5187 41.5943 74.6952 39.9653 75.3136 38.0648L76.3392 34.9879L78.9939 45.5913L72.4629 52.9821C71.1506 54.4753 70.3361 56.3003 70.1099 58.2611L68.5865 72.2583C68.2999 74.9129 70.2155 77.296 72.855 77.5826C73.036 77.5977 73.2019 77.6128 73.3829 77.6128C75.8113 77.6128 77.9079 75.7877 78.1794 73.3141L79.7028 59.3471L89.8386 47.899C91.8899 45.5612 92.7044 42.3635 92.0106 39.3469ZM7.96743 54.3999L1.33086 70.9913C0.335374 73.4649 1.54202 76.2704 4.01566 77.2659C6.54962 78.2614 9.30983 77.0095 10.2902 74.5811L14.4683 64.1436L14.1666 61.3984L7.96743 54.3999Z" fill="#363062"/>
</svg>
