<svg width="89" height="88" viewBox="0 0 89 88" fill="none" xmlns="http://www.w3.org/2000/svg">
<path fill-rule="evenodd" clip-rule="evenodd" d="M83.85 79.1956H77.866L58.726 37.0665L71.53 33.2806L78.834 51.3297C79.318 52.5183 80.726 53.0905 82.002 52.6943C82.53 52.5183 82.97 52.2101 83.234 51.8139C83.498 51.3297 89.702 42.6573 87.854 27.1616C87.326 22.5393 85.17 0 70.694 0C65.766 0.044022 61.806 3.65383 61.85 8.10005C61.85 8.93647 62.026 9.77289 62.29 10.5653L68.186 25.1366L3.418 44.1541V44.2421C1.614 44.7704 0.25 46.3992 0.25 48.3802C0.25 50.8014 2.23 52.7824 4.65 52.7824C5.09 52.7824 5.486 52.6503 5.882 52.5183V52.6063L14.682 50.009L21.15 79.1956H13.45C11.03 79.1956 9.05 81.1766 9.05 83.5978C9.05 86.019 11.03 88 13.45 88H83.85C86.27 88 88.25 86.019 88.25 83.5978C88.25 81.1766 86.27 79.1956 83.85 79.1956ZM23.13 47.5438L40.51 42.4372L28.058 69.8189L23.13 47.5438ZM33.47 79.1956L50.85 40.9845L68.23 79.1956H33.47Z" fill="#363062"/>
</svg>
